<svg xmlns="http://www.w3.org/2000/svg" width="1.5em" height="1.5em" version="1.0" viewBox="0 0 292 262"><path fill="#FFF" fill-opacity=".1" d="m70.4 21.2-2.9 3.3 3.3-2.9c1.7-1.7 3.2-3.1 3.2-3.3 0-.8-.8-.1-3.6 2.9M210 18.3c0 .2 1.5 1.6 3.3 3.3l3.2 2.9-2.9-3.3c-2.8-3-3.6-3.7-3.6-2.9m-86 8.1c0 .2.8 1 1.8 1.7 1.5 1.3 1.6 1.2.3-.4s-2.1-2.1-2.1-1.3m5.5 4.6c1 1.1 2 2 2.3 2s-.3-.9-1.3-2-2-2-2.3-2 .3.9 1.3 2m24.4.7c-1.3 1.6-1.2 1.7.4.4.9-.7 1.7-1.5 1.7-1.7 0-.8-.8-.3-2.1 1.3M137.7 38c3.6 3.7 4.5 4.2 5.5 3.1 1.1-1.1 1-1.3 0-.6-.9.5-2.9-.6-5.5-3.1l-4.2-3.9zm10.2-1.3-2.4 2.8 2.8-2.4c2.5-2.3 3.2-3.1 2.4-3.1-.2 0-1.4 1.2-2.8 2.7m75.3 17.8c0 1.6.2 2.2.5 1.2.2-.9.2-2.3 0-3-.3-.6-.5.1-.5 1.8M21.5 108.2l-4 4.3 4.3-4c3.9-3.6 4.7-4.5 3.9-4.5-.2 0-2.1 1.9-4.2 4.2m236.5-2.8c0 .2.8 1 1.8 1.7 1.5 1.3 1.6 1.2.3-.4s-2.1-2.1-2.1-1.3m8 8c0 .2.8 1 1.8 1.7 1.5 1.3 1.6 1.2.3-.4s-2.1-2.1-2.1-1.3M20 153.5c1.3 1.4 2.6 2.5 2.8 2.5.3 0-.5-1.1-1.8-2.5s-2.6-2.5-2.8-2.5c-.3 0 .5 1.1 1.8 2.5m242.4.7-1.9 2.3 2.3-1.9c1.2-1.1 2.2-2.1 2.2-2.3 0-.8-.8-.2-2.6 1.9m-5.5 4.5c-1.3 1.6-1.2 1.7.4.4s2.1-2.1 1.3-2.1c-.2 0-1 .8-1.7 1.7m-37.4 17.4c-.4.6-.5 1.2-.2 1.5.2.3.7-.2 1-1.1.7-1.7.1-2-.8-.4M147 225.2c2.4 2.7 4.5 4.8 4.7 4.8.8 0 0-.9-4.4-5l-4.8-4.5zm-10.1.5-2.4 2.8 2.8-2.4c1.5-1.4 2.7-2.6 2.7-2.8 0-.8-.8-.1-3.1 2.4m-6.5 5.5-1.9 2.3 2.3-1.9c1.2-1.1 2.2-2.1 2.2-2.3 0-.8-.8-.2-2.6 1.9m25.1 1.8c1 1.1 2 2 2.3 2s-.3-.9-1.3-2-2-2-2.3-2 .3.9 1.3 2M68 240.3c0 .2 1.5 1.6 3.3 3.3l3.2 2.9-2.9-3.3c-2.8-3-3.6-3.7-3.6-2.9m145.4 1.9-1.9 2.3 2.3-1.9c1.2-1.1 2.2-2.1 2.2-2.3 0-.8-.8-.2-2.6 1.9"/><path fill="#FFF" fill-opacity=".2" d="M88.3 13.7c.9.2 2.5.2 3.5 0 .9-.3.1-.5-1.8-.5s-2.7.2-1.7.5m103.5 0c1.2.2 3.2.2 4.5 0 1.2-.2.2-.4-2.3-.4s-3.5.2-2.2.4M132 33.4c0 .2.8 1 1.8 1.7 1.5 1.3 1.6 1.2.3-.4s-2.1-2.1-2.1-1.3M61.4 52.5c0 4.9.1 7.1.3 4.8s.2-6.4 0-9-.3-.8-.3 4.2m3.2 34.2c-.6 1.4-.5 1.5.5.6.7-.7 1-1.5.7-1.8s-.9.2-1.2 1.2m153.4-.8c0 .6.4 1.3 1 1.6s.7-.1.4-.9c-.7-1.8-1.4-2.1-1.4-.7m45 24.6c1.3 1.4 2.6 2.5 2.8 2.5.3 0-.5-1.1-1.8-2.5s-2.6-2.5-2.8-2.5c-.3 0 .5 1.1 1.8 2.5M10.1 132.6c0 1.1.3 1.4.6.6.3-.7.2-1.6-.1-1.9-.3-.4-.6.2-.5 1.3M222.2 199c0 1.4.2 1.9.5 1.2.2-.6.2-1.8 0-2.5-.3-.6-.5-.1-.5 1.3M60.3 211c0 3.6.2 5 .4 3.2.2-1.7.2-4.7 0-6.5-.2-1.7-.4-.3-.4 3.3m28.5 39.7c.7.3 1.6.2 1.9-.1.4-.3-.2-.6-1.3-.5-1.1 0-1.4.3-.6.6"/><path fill="#BFBFBF" fill-opacity=".2" d="M222.1 64.6c0 1.1.3 1.4.6.6.3-.7.2-1.6-.1-1.9-.3-.4-.6.2-.5 1.3m-160 2c0 1.1.3 1.4.6.6.3-.7.2-1.6-.1-1.9-.3-.4-.6.2-.5 1.3m160 154c0 1.1.3 1.4.6.6.3-.7.2-1.6-.1-1.9-.3-.4-.6.2-.5 1.3m-28.3 29.1c1.2.2 3 .2 4 0 .9-.3-.1-.5-2.3-.4-2.2 0-3 .2-1.7.4"/><path fill="gray" fill-opacity=".3" d="M211 20.4c0 .2.8 1 1.8 1.7 1.5 1.3 1.6 1.2.3-.4s-2.1-2.1-2.1-1.3M69.9 22.7c-1.3 1.6-1.2 1.7.4.4.9-.7 1.7-1.5 1.7-1.7 0-.8-.8-.3-2.1 1.3m152.2 25.9c0 1.1.3 1.4.6.6.3-.7.2-1.6-.1-1.9-.3-.4-.6.2-.5 1.3m0 159c0 1.1.3 1.4.6.6.3-.7.2-1.6-.1-1.9-.3-.4-.6.2-.5 1.3m.1 6.4c0 1.4.2 1.9.5 1.2.2-.6.2-1.8 0-2.5-.3-.6-.5-.1-.5 1.3m-79.2 6.3c0 .2 1.5 1.6 3.3 3.3l3.2 2.9-2.9-3.3c-2.8-3-3.6-3.7-3.6-2.9m69.4 21.9-1.9 2.3 2.3-1.9c2.1-1.8 2.7-2.6 1.9-2.6-.2 0-1.2 1-2.3 2.2m-140.9.8c1 1.1 2 2 2.3 2s-.3-.9-1.3-2-2-2-2.3-2 .3.9 1.3 2"/><path fill="#404040" fill-opacity=".5" d="M137 39.5c1.3 1.4 2.6 2.5 2.8 2.5.3 0-.5-1.1-1.8-2.5s-2.6-2.5-2.8-2.5c-.3 0 .5 1.1 1.8 2.5"/><path fill="#004040" fill-opacity=".6" d="M61.1 212.6c0 1.1.3 1.4.6.6.3-.7.2-1.6-.1-1.9-.3-.4-.6.2-.5 1.3"/><path fill="#000040" fill-opacity=".6" d="M61.1 209.6c0 1.1.3 1.4.6.6.3-.7.2-1.6-.1-1.9-.3-.4-.6.2-.5 1.3"/><path fill="#408080" fill-opacity=".3" d="M222.1 210.6c0 1.1.3 1.4.6.6.3-.7.2-1.6-.1-1.9-.3-.4-.6.2-.5 1.3"/><path fill-opacity=".6" d="M95.8 15.7c.6.2 1.8.2 2.5 0 .6-.3.1-.5-1.3-.5s-1.9.2-1.2.5m-24.4 6.5-1.9 2.3 2.3-1.9c2.1-1.8 2.7-2.6 1.9-2.6-.2 0-1.2 1-2.3 2.2m140.1-.2c1 1.1 2 2 2.3 2s-.3-.9-1.3-2-2-2-2.3-2 .3.9 1.3 2m-63.6 16.7c-1.3 1.6-1.2 1.7.4.4.9-.7 1.7-1.5 1.7-1.7 0-.8-.8-.3-2.1 1.3m73.4 8.3c0 2.5.2 3.5.4 2.2.2-1.2.2-3.2 0-4.5-.2-1.2-.4-.2-.4 2.3m-159 5c0 3.6.2 5 .4 3.2.2-1.7.2-4.7 0-6.5-.2-1.7-.4-.3-.4 3.3m159 10.5c0 2.7.2 3.8.4 2.2.2-1.5.2-3.7 0-5-.2-1.2-.4 0-.4 2.8m-158.1 3c0 1.6.2 2.2.5 1.2.2-.9.2-2.3 0-3-.3-.6-.5.1-.5 1.8m.9 8.1c0 1.1.3 1.4.6.6.3-.7.2-1.6-.1-1.9-.3-.4-.6.2-.5 1.3m-52 54c0 1.1.3 1.4.6.6.3-.7.2-1.6-.1-1.9-.3-.4-.6.2-.5 1.3m259.2 3.9c0 3.3.2 4.5.4 2.7s.2-4.5 0-6-.4 0-.4 3.3m-53.2 49.1c0 1.1.3 1.4.6.6.3-.7.2-1.6-.1-1.9-.3-.4-.6.2-.5 1.3m1 6c0 1.1.3 1.4.6.6.3-.7.2-1.6-.1-1.9-.3-.4-.6.2-.5 1.3m-156 6c0 1.1.3 1.4.6.6.3-.7.2-1.6-.1-1.9-.3-.4-.6.2-.5 1.3m157.1.4c0 1.4.2 1.9.5 1.2.2-.6.2-1.8 0-2.5-.3-.6-.5-.1-.5 1.3m-158 7c0 1.9.2 2.7.5 1.7.2-.9.2-2.5 0-3.5-.3-.9-.5-.1-.5 1.8m159.2 11c0 6.3.1 8.9.3 5.7.2-3.1.2-8.3 0-11.5-.2-3.1-.3-.5-.3 5.8M146 222.5c1.9 1.9 3.6 3.5 3.9 3.5s-1-1.6-2.9-3.5-3.6-3.5-3.9-3.5 1 1.6 2.9 3.5m-9.1 1.2c-1.3 1.6-1.2 1.7.4.4s2.1-2.1 1.3-2.1c-.2 0-1 .8-1.7 1.7m-7 6c-1.3 1.6-1.2 1.7.4.4s2.1-2.1 1.3-2.1c-.2 0-1 .8-1.7 1.7m25.1.7c0 .2.8 1 1.8 1.7 1.5 1.3 1.6 1.2.3-.4s-2.1-2.1-2.1-1.3m31.8 17.3c.7.3 1.6.2 1.9-.1.4-.3-.2-.6-1.3-.5-1.1 0-1.4.3-.6.6m7.5 1c.9.2 2.3.2 3 0 .6-.3-.1-.5-1.8-.5-1.6 0-2.2.2-1.2.5"/><path fill="#404040" fill-opacity=".4" d="M222.2 55c0 1.4.2 1.9.5 1.2.2-.6.2-1.8 0-2.5-.3-.6-.5-.1-.5 1.3"/><path fill-opacity=".7" d="M134 37.5c1.9 1.9 3.6 3.5 3.9 3.5s-1-1.6-2.9-3.5-3.6-3.5-3.9-3.5 1 1.6 2.9 3.5m17.9-1.8c-1.3 1.6-1.2 1.7.4.4.9-.7 1.7-1.5 1.7-1.7 0-.8-.8-.3-2.1 1.3m69.4 18.8c0 2.2.2 3 .4 1.7.2-1.2.2-3 0-4-.3-.9-.5.1-.4 2.3m40.7 57c1.3 1.4 2.6 2.5 2.8 2.5.3 0-.5-1.1-1.8-2.5s-2.6-2.5-2.8-2.5c-.3 0 .5 1.1 1.8 2.5m-44.7 64c-.3.9-.3 1.8-.1 2.1.3.3.8-.4 1.1-1.6.6-2.3-.1-2.7-1-.5"/><path fill-opacity=".8" d="m71.9 22.7-2.4 2.8 2.8-2.4c2.5-2.3 3.2-3.1 2.4-3.1-.2 0-1.4 1.2-2.8 2.7m139.1-.2c1.3 1.4 2.6 2.5 2.8 2.5.3 0-.5-1.1-1.8-2.5s-2.6-2.5-2.8-2.5c-.3 0 .5 1.1 1.8 2.5m-88 5.9c0 .2.8 1 1.8 1.7 1.5 1.3 1.6 1.2.3-.4s-2.1-2.1-2.1-1.3m5.5 4.6c1 1.1 2 2 2.3 2s-.3-.9-1.3-2-2-2-2.3-2 .3.9 1.3 2m26.4.7c-1.3 1.6-1.2 1.7.4.4.9-.7 1.7-1.5 1.7-1.7 0-.8-.8-.3-2.1 1.3m-6.5 5.5-1.9 2.3 2.3-1.9c2.1-1.8 2.7-2.6 1.9-2.6-.2 0-1.2 1-2.3 2.2M138 41.4c0 .2.8 1 1.8 1.7 1.5 1.3 1.6 1.2.3-.4s-2.1-2.1-2.1-1.3m82.1 25.2c0 1.1.3 1.4.6.6.3-.7.2-1.6-.1-1.9-.3-.4-.6.2-.5 1.3m-153 20c0 1.1.3 1.4.6.6.3-.7.2-1.6-.1-1.9-.3-.4-.6.2-.5 1.3m148.9-.2c0 .8.4 1.7.9 2 .5.4.7-.3.4-1.4-.6-2.3-1.3-2.6-1.3-.6M22.4 110.2l-2.9 3.3 3.3-2.9c1.7-1.7 3.2-3.1 3.2-3.3 0-.8-.8-.1-3.6 2.9m234.6-2.8c0 .2.8 1 1.8 1.7 1.5 1.3 1.6 1.2.3-.4s-2.1-2.1-2.1-1.3m7.5 7.6c1 1.1 2 2 2.3 2s-.3-.9-1.3-2-2-2-2.3-2 .3.9 1.3 2M12.2 132c0 1.4.2 1.9.5 1.2.2-.6.2-1.8 0-2.5-.3-.6-.5-.1-.5 1.3m7.8 18.4c0 .2.8 1 1.8 1.7 1.5 1.3 1.6 1.2.3-.4s-2.1-2.1-2.1-1.3m240.9 2.3c-1.3 1.6-1.2 1.7.4.4s2.1-2.1 1.3-2.1c-.2 0-1 .8-1.7 1.7M25 154.4c0 .2.8 1 1.8 1.7 1.5 1.3 1.6 1.2.3-.4s-2.1-2.1-2.1-1.3m230.9 2.3c-1.3 1.6-1.2 1.7.4.4s2.1-2.1 1.3-2.1c-.2 0-1 .8-1.7 1.7M66.6 175.3c.3 1 .9 1.5 1.2 1.2s0-1.1-.7-1.8c-1-.9-1.1-.8-.5.6M62.2 216c0 1.4.2 1.9.5 1.2.2-.6.2-1.8 0-2.5-.3-.6-.5-.1-.5 1.3m75.3 6.2-4 4.3 4-3.8c2.3-2 4.5-3.7 5-3.7s3.2 2.1 6 4.7l5 4.8-5-5.3c-2.7-2.8-5.4-5.2-6-5.2s-2.9 1.9-5 4.2m82.6.4c0 1.1.3 1.4.6.6.3-.7.2-1.6-.1-1.9-.3-.4-.6.2-.5 1.3m-90.7 6.6-1.9 2.3 2.3-1.9c2.1-1.8 2.7-2.6 1.9-2.6-.2 0-1.2 1-2.3 2.2m27.1 1.8c1 1.1 2 2 2.3 2s-.3-.9-1.3-2-2-2-2.3-2 .3.9 1.3 2M72 241.5c1.3 1.4 2.6 2.5 2.8 2.5.3 0-.5-1.1-1.8-2.5s-2.6-2.5-2.8-2.5c-.3 0 .5 1.1 1.8 2.5m139.9-.8c-1.3 1.6-1.2 1.7.4.4s2.1-2.1 1.3-2.1c-.2 0-1 .8-1.7 1.7m-18.6 7c1.5.2 3.7.2 5 0 1.2-.2 0-.4-2.8-.4-2.7 0-3.8.2-2.2.4m-105 1c.9.2 2.3.2 3 0 .6-.3-.1-.5-1.8-.5-1.6 0-2.2.2-1.2.5"/><g fill-opacity=".9" stroke-opacity=".9" strokeWidth="0"><path d="M85.3 16.1c-5.3 1-8 2.3-12.1 6.3-3.9 3.6-5.7 6.8-8 14-2.4 7.4-2 27 .7 40.6 1.1 5.7 1.7 10.7 1.3 11.1s-4.3 1.9-8.7 3.4C28.4 101.5 13 115.3 13 132c.1 15.1 14 27.3 44.4 38.6 4.9 1.8 9.2 3.7 9.7 4.1.4.4-.1 4.6-1.2 9.3-1 4.7-2.3 12.8-2.9 18-2.4 21.7 5.5 40.7 18.8 45.1 2 .7 6.4.9 10.3.7 11.3-.9 28.9-10.6 43.7-24.2 3.3-3.1 6.3-5.6 6.7-5.6s4.2 3.2 8.4 7.2c15.1 14.1 27.9 20.7 41.8 21.6 7 .4 8.8.1 12.7-1.8 5.6-2.7 10.5-8.2 13-14.6 2.7-7.2 3.2-25.1 1.1-38.4-.9-5.8-1.9-12.1-2.2-14.1l-.5-3.7 9.7-3.2c20.1-6.7 33.7-15.6 40.4-26.4 3.3-5.4 3.6-6.6 3.6-13-.1-5.3-.6-8.1-2.2-11.1-5.9-11.1-20-20.5-43.6-28.9-4.2-1.6-7.9-3.2-8.2-3.7-.3-.4.4-4.8 1.7-9.6 1.8-7.1 2.2-11.6 2.2-23.8.1-13.5-.2-15.6-2.3-20.9-5.2-13-16.5-19.9-28.7-17.7-10.4 2-25.3 10.5-39.4 22.5-3.6 3.1-7.1 5.6-7.8 5.6-.8 0-4.4-2.7-8-6.1-17.5-16-35.8-24.2-48.9-21.8m14.3 10.2c11.6 3.5 26.6 15.3 42.7 33.6C156.9 76.4 156.7 78 140 78c-12.5.1-37.6 2.2-51.4 4.5-8.6 1.4-10.1 1.4-11.3.2-2.3-2.3-4.5-19.8-4.1-32.7.4-13.2 2.7-19.7 8.2-23.1 3.6-2.2 12-2.5 18.2-.6m100.1-.2c10.5 3.9 14.7 17.8 12 38.9-1.6 11.4-6.6 30.9-10.9 41.8-1.9 4.8-2.7 5.8-5 6-2.4.3-3.2-.4-5.5-4.3-7-11.8-20.9-32.1-29.7-43.4-5.3-6.8-9.6-12.9-9.6-13.6 0-1.9 11.1-11.4 19.8-16.9 13.1-8.5 22-11.1 28.9-8.5m-58.2 55.8c3.3.5 7.8 1.6 9.9 2.5 3.2 1.3 3.6 1.8 2.6 3.1-1 1.2-.9 1.5.6 1.5 4 0 9.7 2.3 12 4.7 2.7 3 17.8 29.4 19.5 34.2.9 2.4.9 4.2.1 7-1.1 3.6-14.8 28-18.7 33.4-2.2 3.1-8.2 5.6-13.4 5.7-2.4 0-3.2.4-2.8 1.4.3.8.2 2.7-.2 4.3l-.7 2.8-12.5.7c-16 1-16 1-18.6.3-2.7-.6-6.2-10.4-4.1-11.6.8-.5.5-1.8-1.4-4.6-4.8-7.2-16.6-28.3-17.8-31.9-1.6-4.8-.9-7.1 6.6-20.7 5.3-9.5 6.4-12.1 5.4-13.2-1.9-2.2-.3-11 2.6-14.5 4.6-5.4 16-7.3 30.9-5.1M98.4 93.8c1.5 1.8 1.1 2.9-8.2 21.3-5.4 10.7-12.2 25.5-15.1 32.9s-5.9 14.2-6.7 15c-1.3 1.3-2.2 1.2-8.2-.9-16.9-5.8-33.1-16.2-36.6-23.4-6.6-14.1 7.9-29.2 37.5-38.7 8.3-2.7 29.7-7.7 34-7.9.9-.1 2.3.7 3.3 1.7m128.2 7.8c26.4 9.9 39 22.7 34.4 35-5.1 13.3-24.4 23.6-57.7 30.9-22.6 5-22.4 5.5-8-23.7 6.4-12.8 13.2-27.8 15.2-33.3s4.2-10.3 4.8-10.7c2-1.3 4.2-.9 11.3 1.8M98 162.7c8.7 14.1 18.2 27.6 27.9 39.7 3.9 4.9 7.1 9.4 7.1 10.1 0 3.2-21.2 19-31.7 23.6-6.7 3-16.2 3.1-20 .3-7.1-5.3-9.7-12.6-9.6-27.4 0-12.6 2.7-26.2 8.4-43.4 4.5-13.5 5.2-14.6 8.4-14.6 1.8 0 3.7 2.4 9.5 11.7m110.8 19c1.7 3.1 3.6 19.5 3.6 29.8 0 11.8-1.4 17.3-5.5 22-7.4 8.4-19.9 6.9-37.1-4.6-6.8-4.5-30.5-27.9-35.2-34.8-4.6-6.5-3.4-7.4 10.5-8.3 22-1.4 40.5-3 47.9-4.3 11.1-1.9 14.8-1.8 15.8.2"/><path d="M157 101.9c1.7 3.2 1.3 8.1-.7 8.1-1.4 0-1.4.3.4 2.2 1.1 1.3 3.3 4.4 4.8 7 3 5.3 3.7 5.9 3.5 2.5-.1-1.2-.2-2.7-.1-3.4.1-1.4 9.1 7.9 9.1 9.5 0 .6.5 1.4 1.1 1.8 2 1.2-.2-3.8-6.8-15.4-5.8-10.1-9.2-14.2-11.6-14.2-.4 0-.3.9.3 1.9m-7 19.3c.2 1.3 3.9 11 4.4 11.5 1.5 1.6.4-5.5-1.4-8.5-1.6-2.6-3.1-4.1-3-3m13.6 33.4c-.9.8-1.6 2.3-1.6 3.1 0 .9.1 1.4.3 1.2 1.5-2.1 3.7-5.9 3.3-5.9-.3 0-1.2.7-2 1.6"/></g><path fill="#BFBFBF" fill-opacity=".3" d="M148.9 36.7c-1.3 1.6-1.2 1.7.4.4.9-.7 1.7-1.5 1.7-1.7 0-.8-.8-.3-2.1 1.3M138 39.4c0 .2.8 1 1.8 1.7 1.5 1.3 1.6 1.2.3-.4s-2.1-2.1-2.1-1.3M22.9 107.7c-1.3 1.6-1.2 1.7.4.4.9-.7 1.7-1.5 1.7-1.7 0-.8-.8-.3-2.1 1.3M20.5 153c1 1.1 2 2 2.3 2s-.3-.9-1.3-2-2-2-2.3-2 .3.9 1.3 2m241.4.7c-1.3 1.6-1.2 1.7.4.4.9-.7 1.7-1.5 1.7-1.7 0-.8-.8-.3-2.1 1.3"/><path fill="#000040" fill-opacity=".9" d="M148.8 185.7c.7.3 1.6.2 1.9-.1.4-.3-.2-.6-1.3-.5-1.1 0-1.4.3-.6.6"/><path fill="#800040" fill-opacity=".9" d="M193.8 25.7c.6.2 1.8.2 2.5 0 .6-.3.1-.5-1.3-.5s-1.9.2-1.2.5m10.2 3.8c1.3 1.4 2.6 2.5 2.8 2.5.3 0-.5-1.1-1.8-2.5s-2.6-2.5-2.8-2.5c-.3 0 .5 1.1 1.8 2.5M73.1 60.6c0 1.1.3 1.4.6.6.3-.7.2-1.6-.1-1.9-.3-.4-.6.2-.5 1.3m63.7 17.1c2.3.2 6.1.2 8.5 0 2.3-.2.4-.4-4.3-.4s-6.6.2-4.2.4m-19 1c.6.2 1.8.2 2.5 0 .6-.3.1-.5-1.3-.5s-1.9.2-1.2.5m-86.4 36.5-1.9 2.3 2.3-1.9c2.1-1.8 2.7-2.6 1.9-2.6-.2 0-1.2 1-2.3 2.2m223.6 3.3c1.3 1.4 2.6 2.5 2.8 2.5.3 0-.5-1.1-1.8-2.5s-2.6-2.5-2.8-2.5c-.3 0 .5 1.1 1.8 2.5m6.2 12.5c0 1.9.2 2.7.5 1.7.2-.9.2-2.5 0-3.5-.3-.9-.5-.1-.5 1.8m-79.4 52.7c.7.3 1.6.2 1.9-.1.4-.3-.2-.6-1.3-.5-1.1 0-1.4.3-.6.6m-25 2c.6.2 1.8.2 2.5 0 .6-.3.1-.5-1.3-.5s-1.9.2-1.2.5m-23.8 6.7c0 .2.8 1 1.8 1.7 1.5 1.3 1.6 1.2.3-.4s-2.1-2.1-2.1-1.3m78.1 8.2c0 1.1.3 1.4.6.6.3-.7.2-1.6-.1-1.9-.3-.4-.6.2-.5 1.3M153.5 215c3.3 3.3 6.2 6 6.4 6 .3 0-2.1-2.7-5.4-6s-6.2-6-6.4-6c-.3 0 2.1 2.7 5.4 6m-65.7 23.7c.6.2 1.8.2 2.5 0 .6-.3.1-.5-1.3-.5s-1.9.2-1.2.5m106.5 0c.9.2 2.3.2 3 0 .6-.3-.1-.5-1.8-.5-1.6 0-2.2.2-1.2.5"/><path fill="#BF0040" fill-opacity=".9" d="M152.9 48.7c-1.3 1.6-1.2 1.7.4.4.9-.7 1.7-1.5 1.7-1.7 0-.8-.8-.3-2.1 1.3M140 58.4c0 .2.8 1 1.8 1.7 1.5 1.3 1.6 1.2.3-.4s-2.1-2.1-2.1-1.3m-9.2 19.3c.7.3 1.6.2 1.9-.1.4-.3-.2-.6-1.3-.5-1.1 0-1.4.3-.6.6m30 108c.7.3 1.6.2 1.9-.1.4-.3-.2-.6-1.3-.5-1.1 0-1.4.3-.6.6"/><path fill="#FF4040" fill-opacity=".9" d="M84.5 26.4c-4.1 1.8-8.2 6.8-9.7 11.9-2.4 8.2-.5 39 2.7 43.4 1.1 1.5 2 1.5 11.6 0 15.8-2.6 26.8-3.6 45.1-4.3 21-.9 21.1-.9 10.4-13.8-16.6-20.1-36-35.1-48.2-37.1-2.1-.3-5-.8-6.4-1-1.4-.3-3.9.2-5.5.9M186 27.7c-9.9 3.4-34 20.2-34 23.7 0 .8 2.8 4.9 6.3 9.3 9.2 11.4 19.7 26.3 26.9 38.1 6.5 10.7 9.1 14.2 10.7 14.2 1.3 0 6.4-13.5 10-26.4 4-14.2 5.4-24.9 4.9-36.4-1-19.9-9.7-27.8-24.8-22.5M84 95c-41.5 8.6-61.8 21.7-61.1 39.3.2 4.1 8.5 12.4 17.5 17.6 8.7 5 24.9 11.3 26.9 10.5.7-.2 3.8-6.7 6.7-14.2s9.8-22.4 15.2-33.1C101.4 91 101.4 91.3 84 95m132.3 4.8c-.7.4-3.1 5.7-5.3 11.7-2.2 6.1-9 21-15.1 33.3-8.1 16.2-10.9 22.6-10.1 23.4 2.1 2.1 30.3-4.1 45.9-10.1 14.7-5.7 25.9-14.8 28.4-23.1 3.4-11.2-7.9-22.2-33-32.2-5.2-2.1-9.5-3.8-9.5-3.8-.1 0-.7.4-1.3.8M86.1 152.4c-2 2.4-9.8 27.8-12.1 39.6-4.2 21.9-.9 39.3 8.5 44 6.6 3.3 17.4.6 29.6-7.2 7.7-5 19.9-14.9 19.9-16.2 0-.6-3.1-4.9-6.8-9.6-9.9-12.3-20.2-27-27.4-38.9-8.2-13.6-9.3-14.7-11.7-11.7M198 181.6c-13 2.2-37.9 4.4-50 4.4-13 0-16.2 1.1-14.5 4.8.6 1.2 5.5 7.2 11 13.3 16.7 18.8 33.6 30.8 46.4 33 5.2 1 6.5.8 10.5-1 6.8-3 8.9-8.1 9.4-22.6.4-12.2-1.8-30-4-31.9-1-1-3-1-8.8 0"/><path fill="#BF4040" fill-opacity=".9" d="M210.1 42.6c0 1.1.3 1.4.6.6.3-.7.2-1.6-.1-1.9-.3-.4-.6.2-.5 1.3m1.2 10.9c0 4.4.2 6.1.4 3.7.2-2.3.2-5.9 0-8-.2-2-.4-.1-.4 4.3M144.5 64c1 1.1 2 2 2.3 2s-.3-.9-1.3-2-2-2-2.3-2 .3.9 1.3 2m65.7 3c0 1.4.2 1.9.5 1.2.2-.6.2-1.8 0-2.5-.3-.6-.5-.1-.5 1.3m-60.1 3.7c.7 1.2 1.5 2 1.8 1.7.3-.2-.3-1.2-1.3-2.2-1.7-1.6-1.8-1.6-.5.5m59 2.9c0 1.1.3 1.4.6.6.3-.7.2-1.6-.1-1.9-.3-.4-.6.2-.5 1.3m-11.5 37.1c-.6 1.4-.5 1.5.5.6.7-.7 1-1.5.7-1.8s-.9.2-1.2 1.2m57.4 8.7c0 .2.8 1 1.8 1.7 1.5 1.3 1.6 1.2.3-.4s-2.1-2.1-2.1-1.3M28 143.5c1.3 1.4 2.6 2.5 2.8 2.5.3 0-.5-1.1-1.8-2.5s-2.6-2.5-2.8-2.5c-.3 0 .5 1.1 1.8 2.5m225.4 1.7-2.9 3.3 3.3-2.9c1.7-1.7 3.2-3.1 3.2-3.3 0-.8-.8-.1-3.6 2.9m-55.6 22.5c.7.3 1.6.2 1.9-.1.4-.3-.2-.6-1.3-.5-1.1 0-1.4.3-.6.6m-5 1c.7.3 1.6.2 1.9-.1.4-.3-.2-.6-1.3-.5-1.1 0-1.4.3-.6.6m14.9 14.4c.4 1.3.8 1.8 1.1 1 .2-.7-.1-1.8-.6-2.3-.8-.8-.9-.4-.5 1.3m1.4 6.5c0 1.1.3 1.4.6.6.3-.7.2-1.6-.1-1.9-.3-.4-.6.2-.5 1.3m1.1 6.9c0 1.6.2 2.2.5 1.2.2-.9.2-2.3 0-3-.3-.6-.5.1-.5 1.8m-68.2 5.8c0 .2 1.5 1.6 3.3 3.3l3.2 2.9-2.9-3.3c-2.8-3-3.6-3.7-3.6-2.9m69.3 9.2c0 4.4.2 6.1.4 3.7.2-2.3.2-5.9 0-8-.2-2-.4-.1-.4 4.3m-84.4 6.2c-1.3 1.6-1.2 1.7.4.4s2.1-2.1 1.3-2.1c-.2 0-1 .8-1.7 1.7m32.1 1.7c0 .2.8 1 1.8 1.7 1.5 1.3 1.6 1.2.3-.4s-2.1-2.1-2.1-1.3m-38.1 3.3c-1.3 1.6-1.2 1.7.4.4s2.1-2.1 1.3-2.1c-.2 0-1 .8-1.7 1.7m89.2.9c0 1.1.3 1.4.6.6.3-.7.2-1.6-.1-1.9-.3-.4-.6.2-.5 1.3m-46.1-.2c0 .2.8 1 1.8 1.7 1.5 1.3 1.6 1.2.3-.4s-2.1-2.1-2.1-1.3m-72.2 14.3c.6.2 1.8.2 2.5 0 .6-.3.1-.5-1.3-.5s-1.9.2-1.2.5m98 0c.6.2 1.8.2 2.5 0 .6-.3.1-.5-1.3-.5s-1.9.2-1.2.5"/><path fill="#400040" fill-opacity=".9" d="M94.8 25.7c.7.3 1.6.2 1.9-.1.4-.3-.2-.6-1.3-.5-1.1 0-1.4.3-.6.6M131 48.5c3 3 5.7 5.5 5.9 5.5.3 0-1.9-2.5-4.9-5.5s-5.7-5.5-5.9-5.5c-.3 0 1.9 2.5 4.9 5.5m81.3 5c0 2.2.2 3 .4 1.7.2-1.2.2-3 0-4-.3-.9-.5.1-.4 2.3M73.1 63.6c0 1.1.3 1.4.6.6.3-.7.2-1.6-.1-1.9-.3-.4-.6.2-.5 1.3m48.7 15.1c.6.2 1.8.2 2.5 0 .6-.3.1-.5-1.3-.5s-1.9.2-1.2.5m-12 1c.7.3 1.6.2 1.9-.1.4-.3-.2-.6-1.3-.5-1.1 0-1.4.3-.6.6m-10 1c.7.3 1.6.2 1.9-.1.4-.3-.2-.6-1.3-.5-1.1 0-1.4.3-.6.6m153.1 66-2.4 2.8 2.8-2.4c1.5-1.4 2.7-2.6 2.7-2.8 0-.8-.8-.1-3.1 2.4m-74.1 37c.7.3 1.6.2 1.9-.1.4-.3-.2-.6-1.3-.5-1.1 0-1.4.3-.6.6m-10 1c.7.3 1.6.2 1.9-.1.4-.3-.2-.6-1.3-.5-1.1 0-1.4.3-.6.6m-16.5 1c.9.2 2.3.2 3 0 .6-.3-.1-.5-1.8-.5-1.6 0-2.2.2-1.2.5m-20.2 3.9c0 1.1.3 1.4.6.6.3-.7.2-1.6-.1-1.9-.3-.4-.6.2-.5 1.3m79 8c0 1.1.3 1.4.6.6.3-.7.2-1.6-.1-1.9-.3-.4-.6.2-.5 1.3M71.3 209.5c0 2.7.2 3.8.4 2.2.2-1.5.2-3.7 0-5-.2-1.2-.4 0-.4 2.8m73.7-3.1c0 .2.8 1 1.8 1.7 1.5 1.3 1.6 1.2.3-.4s-2.1-2.1-2.1-1.3m67.3 5.6c0 3 .2 4.3.4 2.7.2-1.5.2-3.9 0-5.5-.2-1.5-.4-.2-.4 2.8m-80.2.6c0 1.1.3 1.4.6.6.3-.7.2-1.6-.1-1.9-.3-.4-.6.2-.5 1.3m31.9 11.8c0 .2.8 1 1.8 1.7 1.5 1.3 1.6 1.2.3-.4s-2.1-2.1-2.1-1.3"/><path fill="#FFF" fill-opacity=".3" d="M135 36.4c0 .2.8 1 1.8 1.7 1.5 1.3 1.6 1.2.3-.4s-2.1-2.1-2.1-1.3"/><path fill="gray" fill-opacity=".2" d="M272.2 132c0 1.4.2 1.9.5 1.2.2-.6.2-1.8 0-2.5-.3-.6-.5-.1-.5 1.3"/><path fill-opacity=".5" d="M150 226.4c0 .2.8 1 1.8 1.7 1.5 1.3 1.6 1.2.3-.4s-2.1-2.1-2.1-1.3"/><g strokeWidth="0"><path d="M117.3 82.7c-2.3.8-5.3 2.7-6.7 4.3-2.9 3.6-4.5 12.3-2.5 14.6 1.1 1.4 1.5 1.1 3-1.8 2.5-4.9 6.6-8.6 10.8-9.8 2-.5 9.7-1 17.2-1 10.9 0 13.9-.3 14.9-1.5 3.9-4.7-26.1-8.6-36.7-4.8m6.1 18.2c-4.5 2.8-17.4 25.4-17.4 30.6s12.9 27.8 17.4 30.6c2.7 1.6 5.1 1.9 17.6 1.9 12.7 0 14.9-.3 17.8-2 1.9-1.2 3.2-2.8 3.2-4 0-1.1.9-2.8 2.1-3.8 2.8-2.4 11.9-18.5 11.9-21.1 0-2.9-1.7-5.7-6.7-11.3-4.4-4.8-4.7-4.8-4.3 1.2.9 12.8.6 14.2-3.9 21.6-5.9 9.7-8.2 10.9-20.1 10.9-12 0-14.2-1.2-20-10.9-6.1-10.1-6.4-14.4-1.5-23.3 4.6-8.5 7.9-12 12.4-13.3 5.1-1.4 14.9-1.2 19.6.5 2.2.8 4.6 1.5 5.3 1.5 1.5 0 1.6-5.1 0-8.5l-1.1-2.5h-14.6c-12.6 0-15 .3-17.7 1.9"/><path d="M135 118.8c-4.7 2.3-8 7.5-8 12.5 0 15.1 19.6 19.9 26.6 6.5 1.2-2.3 1.3-3.6.6-5.2-.6-1.1-1.9-4.5-2.9-7.5-1.4-4.4-2.4-5.7-5-6.8-4.3-1.7-7.1-1.6-11.3.5m10.8 9c2.8 3.7-.2 10.2-4.8 10.2-2.7 0-6-3.5-6-6.3 0-5.9 7.2-8.5 10.8-3.9m-30.5 43.8c-2 2 1.1 11.2 4 11.9 2.6.7 2.6.7 18.6-.3l12.5-.7.7-2.8c1.4-5.3.9-5.5-15-5.9-11.4-.2-15.2-.7-17.2-1.9-2-1.3-2.6-1.4-3.6-.3"/></g><path fill="#404000" d="M131.2 89.7c3.7.2 10 .2 14 0 4-.1 1-.3-6.7-.3s-11 .1-7.3.3m6.6 18c1.7.2 4.7.2 6.5 0 1.7-.2.3-.4-3.3-.4s-5 .2-3.2.4m0 48c1.7.2 4.7.2 6.5 0 1.7-.2.3-.4-3.3-.4s-5 .2-3.2.4m-2.5 9c3.1.2 8.3.2 11.5 0 3.1-.2.5-.3-5.8-.3s-8.9.1-5.7.3m-4 9c3.7.2 9.7.2 13.5 0 3.7-.2.6-.3-6.8-.3s-10.5.1-6.7.3"/><path fill="#404000" fill-opacity=".9" d="M153.3 89.7c.9.2 2.3.2 3 0 .6-.3-.1-.5-1.8-.5-1.6 0-2.2.2-1.2.5m-1 84c.9.2 2.5.2 3.5 0 .9-.3.1-.5-1.8-.5s-2.7.2-1.7.5"/><path fill="#404040" d="M126.1 129.6c0 1.1.3 1.4.6.6.3-.7.2-1.6-.1-1.9-.3-.4-.6.2-.5 1.3m0 4c0 1.1.3 1.4.6.6.3-.7.2-1.6-.1-1.9-.3-.4-.6.2-.5 1.3"/><path fill="#808040" d="M133.3 98.7c4.2.2 11.2.2 15.5 0 4.2-.1.7-.3-7.8-.3s-12 .2-7.7.3m12.8 32.9c0 1.1.3 1.4.6.6.3-.7.2-1.6-.1-1.9-.3-.4-.6.2-.5 1.3"/><path fill="#BFBF40" d="M139.8 136.7c.6.2 1.8.2 2.5 0 .6-.3.1-.5-1.3-.5s-1.9.2-1.2.5m-3 18c2.3.2 6.1.2 8.5 0 2.3-.2.4-.4-4.3-.4s-6.6.2-4.2.4m-6.5 18c4.2.2 11.2.2 15.5 0 4.2-.1.7-.3-7.8-.3s-12 .2-7.7.3"/><g fill="#FFBF40" strokeWidth="0"><path d="M119.8 91.7c-4.1 1.7-8.8 8.5-11.2 16.5-.7 2.5-3 7.3-5 10.8-3.1 5.3-3.8 7.3-3.9 12.4-.1 6.8.8 9 7.5 18.1 2.4 3.3 5.3 8.7 6.4 11.9 3.4 10.5 2.3 10.1 24.8 10.1 21.7 0 21.6 0 23.4-6.8.6-2 .9-3.7.6-3.7-.2 0-1.8.9-3.6 2-2.9 1.7-5.1 2-17.6 2-19.6 0-19.6 0-30.6-19.6-7.3-13.1-7.3-14.7 0-27.8 11.2-20 10.9-19.8 32.2-19.5 11.3.1 15.7-.1 15.6-1-.1-.6-.2-1.8-.2-2.6-.1-.8-1.5-2.1-3.2-3-4.2-2.1-29.9-2.1-35.2.2"/><path d="M131 109.1c-3.9 1.6-5.8 3.7-10.1 11.6-5.2 9.3-5.2 12.2-.3 21.3 6 11.1 6.6 11.4 19.2 11.8 7.3.2 11.5-.2 13.1-1 3-1.6 10.8-14 11.7-18.5.8-4.4-.2-7.9-3-10.4-2.1-1.8-4.4-6-6-11.2-.3-1-2.1-2.4-4.1-3.2-3.9-1.7-16.7-1.9-20.5-.4m14.6 7.9c1.5.6 4.4 2.4 6.5 4.1 3.7 2.9 3.9 3.3 3.9 8.8 0 9.7-6.2 16.6-15 16.6-5.5 0-9.1-2.1-12.7-7.5-7.5-11 4.9-26.7 17.3-22"/><path d="M138.2 127.6c-2.4 1.7-2.9 5.3-1 7.2s6.6 1.5 7.8-.7c1.4-2.8 1.3-3.8-1-6.1-2.4-2.4-2.9-2.4-5.8-.4m37.4-3.8c-.2.4-.1 1.4.5 2.2 2.1 3.5.9 9.4-3.6 17.4-4.7 8.2-5 10.6-1.6 10.6 2 0 6.5-5.7 8.8-11 1.1-2.7.2-12.5-1.6-17.3-1.1-2.8-1.6-3.2-2.5-1.9"/></g><g fill="#FFBF40" fill-opacity=".9" stroke-opacity=".9" strokeWidth="0"><path d="M155.3 91.5c2.5 1.4 3.1 2.8 3 6.3-.1.8 1.2 2.6 2.8 4 1.5 1.5 5.3 7 8.3 12.2s6 9.4 6.6 9.2c2.5-.6 5.5 15.5 3.7 19.8-3.6 8.3-9.2 13.2-11.3 9.9-.8-1.3-5.7 6.6-6.2 10.1-.6 4.2-2.6 7.4-5.2 8.2-1.8.5-1.2.6 1.9.4 2.5-.3 5.2-1.2 6.2-2.3 1-1 5.7-8.6 10.5-16.8 12.3-21.1 12.2-20.3.2-41.4-5.2-9.1-10.6-17.3-12-18.4-1.3-1-4.5-2.1-6.9-2.3l-4.4-.5zm-53 25.8c-3.5 6.2-6.3 12.5-6.3 14 0 3.2 1.7 6.8 11.2 23.2 8.5 14.7 9.5 15.8 6.6 7.5-1.2-3.6-4.2-9.2-6.6-12.5-6.7-9.1-7.6-11.3-7.5-18 .1-5.1.8-7.2 4.2-13 3.5-6.1 6-12.5 5-12.5-.2 0-3.2 5.1-6.6 11.3"/><path d="M156 114.5c0 1.2 4 8.4 5 9 1.6 1 1.2-.5-1.5-5.2-2.4-3.9-3.5-5.2-3.5-3.8m-2.3 9.2c1 1.8 2 2.8 2.2 2.2s-.6-2.1-1.9-3.3l-2.1-2.1z"/></g><path fill="#BFBF40" fill-opacity=".9" d="M183.6 125.3c.3 1 .9 1.5 1.2 1.2s0-1.1-.7-1.8c-1-.9-1.1-.8-.5.6m1.7 6.2c0 2.2.2 3 .4 1.7.2-1.2.2-3 0-4-.3-.9-.5.1-.4 2.3m-31 41.2c.9.2 2.5.2 3.5 0 .9-.3.1-.5-1.8-.5s-2.7.2-1.7.5"/></svg>